<mxfile host="Electron" modified="2024-01-27T05:46:09.109Z" agent="Mozilla/5.0 (Windows NT 10.0; Win64; x64) AppleWebKit/537.36 (KHTML, like Gecko) draw.io/23.0.2 Chrome/120.0.6099.109 Electron/28.1.0 Safari/537.36" etag="pAo6wlP4yj2DUgYf_mU9" version="23.0.2" type="device">
  <diagram name="ページ1" id="LE8fIzdrHe0wcv1LTvfw">
    <mxGraphModel dx="866" dy="518" grid="1" gridSize="10" guides="1" tooltips="1" connect="1" arrows="1" fold="1" page="1" pageScale="1" pageWidth="1600" pageHeight="1200" math="0" shadow="0">
      <root>
        <mxCell id="0" />
        <mxCell id="cFaB45KztUIKXS-_cTrr-4" value="背景" style="locked=1;" parent="0" visible="0" />
        <mxCell id="cFaB45KztUIKXS-_cTrr-5" value="" style="rounded=0;whiteSpace=wrap;html=1;strokeWidth=3;" parent="cFaB45KztUIKXS-_cTrr-4" vertex="1">
          <mxGeometry x="1" y="1" width="1595" height="1180" as="geometry" />
        </mxCell>
        <mxCell id="cFaB45KztUIKXS-_cTrr-6" value="" style="rounded=0;whiteSpace=wrap;html=1;fillColor=#B3B3B3;fontColor=#333333;strokeColor=#666666;" parent="cFaB45KztUIKXS-_cTrr-4" vertex="1">
          <mxGeometry width="1595" height="60" as="geometry" />
        </mxCell>
        <mxCell id="cFaB45KztUIKXS-_cTrr-7" value="&lt;font style=&quot;font-size: 48px;&quot;&gt;×&lt;/font&gt;" style="rounded=0;whiteSpace=wrap;html=1;" parent="cFaB45KztUIKXS-_cTrr-4" vertex="1">
          <mxGeometry x="1550" y="10" width="40" height="40" as="geometry" />
        </mxCell>
        <mxCell id="cFaB45KztUIKXS-_cTrr-8" value="" style="rounded=0;whiteSpace=wrap;html=1;" parent="cFaB45KztUIKXS-_cTrr-4" vertex="1">
          <mxGeometry x="830" y="670" width="120" height="60" as="geometry" />
        </mxCell>
        <mxCell id="cFaB45KztUIKXS-_cTrr-9" value="ウインドウ" style="locked=1;" parent="0" />
        <mxCell id="cFaB45KztUIKXS-_cTrr-10" value="" style="rounded=0;whiteSpace=wrap;html=1;strokeWidth=3;" parent="cFaB45KztUIKXS-_cTrr-9" vertex="1">
          <mxGeometry x="1" y="1" width="1595" height="1489" as="geometry" />
        </mxCell>
        <mxCell id="cFaB45KztUIKXS-_cTrr-11" value="" style="rounded=0;whiteSpace=wrap;html=1;fillColor=#B3B3B3;fontColor=#333333;strokeColor=#666666;" parent="cFaB45KztUIKXS-_cTrr-9" vertex="1">
          <mxGeometry width="1595" height="60" as="geometry" />
        </mxCell>
        <mxCell id="cFaB45KztUIKXS-_cTrr-12" value="&lt;font style=&quot;font-size: 48px;&quot;&gt;×&lt;/font&gt;" style="rounded=0;whiteSpace=wrap;html=1;" parent="cFaB45KztUIKXS-_cTrr-9" vertex="1">
          <mxGeometry x="1550" y="10" width="40" height="40" as="geometry" />
        </mxCell>
        <mxCell id="cFaB45KztUIKXS-_cTrr-14" value="名称未設定レイヤ" style="" parent="0" />
        <mxCell id="qQW_u_u5-3ppLx-0F7_--9" value="&lt;span style=&quot;font-size: 30px;&quot;&gt;一覧&lt;/span&gt;" style="rounded=1;whiteSpace=wrap;html=1;" parent="cFaB45KztUIKXS-_cTrr-14" vertex="1">
          <mxGeometry x="1330" y="1300" width="210" height="60" as="geometry" />
        </mxCell>
        <mxCell id="qQW_u_u5-3ppLx-0F7_--19" value="&lt;span style=&quot;font-size: 30px;&quot;&gt;収支報告除外比率は&lt;/span&gt;" style="rounded=0;whiteSpace=wrap;html=1;align=left;dashed=1;dashPattern=8 8;verticalAlign=bottom;" parent="cFaB45KztUIKXS-_cTrr-14" vertex="1">
          <mxGeometry x="183" y="457" width="302" height="46" as="geometry" />
        </mxCell>
        <mxCell id="SVBkzKlQY5_SW_EC5yE4-0" value="&lt;div style=&quot;&quot;&gt;&lt;span style=&quot;font-size: 30px;&quot;&gt;0&lt;/span&gt;&lt;/div&gt;" style="rounded=0;whiteSpace=wrap;html=1;align=right;fillColor=#CCCCCC;" parent="cFaB45KztUIKXS-_cTrr-14" vertex="1">
          <mxGeometry x="501" y="457" width="71" height="48" as="geometry" />
        </mxCell>
        <mxCell id="SVBkzKlQY5_SW_EC5yE4-1" value="&lt;span style=&quot;font-size: 30px;&quot;&gt;%です。&lt;br&gt;&lt;/span&gt;" style="rounded=0;whiteSpace=wrap;html=1;align=left;dashed=1;dashPattern=8 8;verticalAlign=bottom;" parent="cFaB45KztUIKXS-_cTrr-14" vertex="1">
          <mxGeometry x="595" y="453" width="130" height="46" as="geometry" />
        </mxCell>
        <mxCell id="SVBkzKlQY5_SW_EC5yE4-2" value="&lt;div style=&quot;&quot;&gt;&lt;span style=&quot;font-size: 30px;&quot;&gt;生活資金と政治資金が完全に分離しています&lt;/span&gt;&lt;/div&gt;" style="rounded=0;whiteSpace=wrap;html=1;align=left;fillColor=#CCCCCC;" parent="cFaB45KztUIKXS-_cTrr-14" vertex="1">
          <mxGeometry x="501" y="515" width="1029" height="48" as="geometry" />
        </mxCell>
        <mxCell id="SVBkzKlQY5_SW_EC5yE4-3" value="&lt;span style=&quot;font-size: 30px;&quot;&gt;仕訳衝突率は&lt;/span&gt;" style="rounded=0;whiteSpace=wrap;html=1;align=left;dashed=1;dashPattern=8 8;verticalAlign=bottom;" parent="cFaB45KztUIKXS-_cTrr-14" vertex="1">
          <mxGeometry x="183" y="577" width="302" height="46" as="geometry" />
        </mxCell>
        <mxCell id="SVBkzKlQY5_SW_EC5yE4-4" value="&lt;div style=&quot;&quot;&gt;&lt;span style=&quot;font-size: 30px;&quot;&gt;4.7&lt;/span&gt;&lt;/div&gt;" style="rounded=0;whiteSpace=wrap;html=1;align=right;fillColor=#CCCCCC;" parent="cFaB45KztUIKXS-_cTrr-14" vertex="1">
          <mxGeometry x="501" y="577" width="71" height="48" as="geometry" />
        </mxCell>
        <mxCell id="SVBkzKlQY5_SW_EC5yE4-5" value="&lt;font style=&quot;font-size: 30px;&quot;&gt;計算式&lt;/font&gt;" style="rounded=1;whiteSpace=wrap;html=1;strokeWidth=4;" parent="cFaB45KztUIKXS-_cTrr-14" vertex="1">
          <mxGeometry x="38" y="456" width="120" height="60" as="geometry" />
        </mxCell>
        <mxCell id="SVBkzKlQY5_SW_EC5yE4-6" value="&lt;span style=&quot;font-size: 30px;&quot;&gt;%です。&lt;br&gt;&lt;/span&gt;" style="rounded=0;whiteSpace=wrap;html=1;align=left;dashed=1;dashPattern=8 8;verticalAlign=bottom;" parent="cFaB45KztUIKXS-_cTrr-14" vertex="1">
          <mxGeometry x="595" y="573" width="130" height="46" as="geometry" />
        </mxCell>
        <mxCell id="SVBkzKlQY5_SW_EC5yE4-7" value="&lt;span style=&quot;font-size: 30px;&quot;&gt;完全に異論を出せない環境でもなく、適正と判断されます&lt;/span&gt;" style="rounded=0;whiteSpace=wrap;html=1;align=left;fillColor=#CCCCCC;" parent="cFaB45KztUIKXS-_cTrr-14" vertex="1">
          <mxGeometry x="501" y="647" width="1029" height="53" as="geometry" />
        </mxCell>
        <mxCell id="SVBkzKlQY5_SW_EC5yE4-8" value="&lt;font style=&quot;font-size: 30px;&quot;&gt;計算式&lt;/font&gt;" style="rounded=1;whiteSpace=wrap;html=1;strokeWidth=4;" parent="cFaB45KztUIKXS-_cTrr-14" vertex="1">
          <mxGeometry x="38" y="576" width="120" height="60" as="geometry" />
        </mxCell>
        <mxCell id="SVBkzKlQY5_SW_EC5yE4-9" value="&lt;font style=&quot;font-size: 84px;&quot;&gt;○&lt;/font&gt;" style="text;html=1;strokeColor=none;fillColor=none;align=center;verticalAlign=middle;whiteSpace=wrap;rounded=0;fontSize=60;" parent="cFaB45KztUIKXS-_cTrr-14" vertex="1">
          <mxGeometry x="80" y="380" width="60" height="30" as="geometry" />
        </mxCell>
        <mxCell id="SVBkzKlQY5_SW_EC5yE4-10" value="&lt;font style=&quot;font-size: 48px;&quot;&gt;●&lt;/font&gt;" style="text;html=1;strokeColor=none;fillColor=none;align=center;verticalAlign=middle;whiteSpace=wrap;rounded=0;fontSize=48;" parent="cFaB45KztUIKXS-_cTrr-14" vertex="1">
          <mxGeometry x="80" y="382" width="60" height="30" as="geometry" />
        </mxCell>
        <mxCell id="SVBkzKlQY5_SW_EC5yE4-11" value="&lt;span style=&quot;font-size: 30px;&quot;&gt;組織統一指標&lt;br&gt;&lt;/span&gt;" style="text;html=1;strokeColor=none;fillColor=none;align=left;verticalAlign=middle;whiteSpace=wrap;rounded=0;" parent="cFaB45KztUIKXS-_cTrr-14" vertex="1">
          <mxGeometry x="135" y="369" width="275" height="60" as="geometry" />
        </mxCell>
        <mxCell id="SVBkzKlQY5_SW_EC5yE4-12" value="&lt;font style=&quot;font-size: 84px;&quot;&gt;○&lt;/font&gt;" style="text;html=1;strokeColor=none;fillColor=none;align=center;verticalAlign=middle;whiteSpace=wrap;rounded=0;fontSize=60;" parent="cFaB45KztUIKXS-_cTrr-14" vertex="1">
          <mxGeometry x="350" y="380" width="60" height="30" as="geometry" />
        </mxCell>
        <mxCell id="SVBkzKlQY5_SW_EC5yE4-13" value="&lt;span style=&quot;font-size: 30px;&quot;&gt;サブ指標(各種AI補助)&lt;br&gt;&lt;/span&gt;" style="text;html=1;strokeColor=none;fillColor=none;align=left;verticalAlign=middle;whiteSpace=wrap;rounded=0;" parent="cFaB45KztUIKXS-_cTrr-14" vertex="1">
          <mxGeometry x="1068" y="369" width="315" height="60" as="geometry" />
        </mxCell>
        <mxCell id="SVBkzKlQY5_SW_EC5yE4-15" value="&lt;font style=&quot;font-size: 84px;&quot;&gt;○&lt;/font&gt;" style="text;html=1;strokeColor=none;fillColor=none;align=center;verticalAlign=middle;whiteSpace=wrap;rounded=0;fontSize=60;" parent="cFaB45KztUIKXS-_cTrr-14" vertex="1">
          <mxGeometry x="1011" y="380" width="60" height="30" as="geometry" />
        </mxCell>
        <mxCell id="SVBkzKlQY5_SW_EC5yE4-16" value="&lt;span style=&quot;font-size: 30px;&quot;&gt;オンブズマンA独自&lt;br&gt;&lt;/span&gt;" style="text;html=1;strokeColor=none;fillColor=none;align=left;verticalAlign=middle;whiteSpace=wrap;rounded=0;" parent="cFaB45KztUIKXS-_cTrr-14" vertex="1">
          <mxGeometry x="402" y="369" width="315" height="60" as="geometry" />
        </mxCell>
        <mxCell id="SVBkzKlQY5_SW_EC5yE4-17" value="&lt;font style=&quot;font-size: 84px;&quot;&gt;○&lt;/font&gt;" style="text;html=1;strokeColor=none;fillColor=none;align=center;verticalAlign=middle;whiteSpace=wrap;rounded=0;fontSize=60;" parent="cFaB45KztUIKXS-_cTrr-14" vertex="1">
          <mxGeometry x="670" y="380" width="60" height="30" as="geometry" />
        </mxCell>
        <mxCell id="SVBkzKlQY5_SW_EC5yE4-18" value="&lt;span style=&quot;font-size: 30px;&quot;&gt;オンブズマンB独自&lt;br&gt;&lt;/span&gt;" style="text;html=1;strokeColor=none;fillColor=none;align=left;verticalAlign=middle;whiteSpace=wrap;rounded=0;" parent="cFaB45KztUIKXS-_cTrr-14" vertex="1">
          <mxGeometry x="722" y="369" width="315" height="60" as="geometry" />
        </mxCell>
        <mxCell id="SVBkzKlQY5_SW_EC5yE4-19" value="&lt;div style=&quot;&quot;&gt;&lt;span style=&quot;font-size: 30px;&quot;&gt;▼最新：2022報告(2021年分)&lt;/span&gt;&lt;/div&gt;" style="rounded=0;whiteSpace=wrap;html=1;align=left;fillColor=#FFFFFF;" parent="cFaB45KztUIKXS-_cTrr-14" vertex="1">
          <mxGeometry x="46" y="305" width="424" height="48" as="geometry" />
        </mxCell>
        <mxCell id="SVBkzKlQY5_SW_EC5yE4-20" value="&lt;span style=&quot;font-size: 30px;&quot;&gt;仕訳相違率は&lt;/span&gt;" style="rounded=0;whiteSpace=wrap;html=1;align=left;dashed=1;dashPattern=8 8;verticalAlign=bottom;" parent="cFaB45KztUIKXS-_cTrr-14" vertex="1">
          <mxGeometry x="183" y="727" width="302" height="46" as="geometry" />
        </mxCell>
        <mxCell id="SVBkzKlQY5_SW_EC5yE4-21" value="&lt;div style=&quot;&quot;&gt;&lt;span style=&quot;font-size: 30px;&quot;&gt;33.9&lt;/span&gt;&lt;/div&gt;" style="rounded=0;whiteSpace=wrap;html=1;align=right;fillColor=#CCCCCC;" parent="cFaB45KztUIKXS-_cTrr-14" vertex="1">
          <mxGeometry x="501" y="727" width="71" height="48" as="geometry" />
        </mxCell>
        <mxCell id="SVBkzKlQY5_SW_EC5yE4-22" value="&lt;span style=&quot;font-size: 30px;&quot;&gt;%です。&lt;br&gt;&lt;/span&gt;" style="rounded=0;whiteSpace=wrap;html=1;align=left;dashed=1;dashPattern=8 8;verticalAlign=bottom;" parent="cFaB45KztUIKXS-_cTrr-14" vertex="1">
          <mxGeometry x="595" y="723" width="130" height="46" as="geometry" />
        </mxCell>
        <mxCell id="SVBkzKlQY5_SW_EC5yE4-23" value="&lt;span style=&quot;font-size: 30px;&quot;&gt;代表者&lt;/span&gt;" style="rounded=0;whiteSpace=wrap;html=1;align=left;fillColor=#CCCCCC;" parent="cFaB45KztUIKXS-_cTrr-14" vertex="1">
          <mxGeometry x="750" y="727" width="140" height="48" as="geometry" />
        </mxCell>
        <mxCell id="SVBkzKlQY5_SW_EC5yE4-24" value="&lt;font style=&quot;font-size: 30px;&quot;&gt;計算式&lt;/font&gt;" style="rounded=1;whiteSpace=wrap;html=1;strokeWidth=4;" parent="cFaB45KztUIKXS-_cTrr-14" vertex="1">
          <mxGeometry x="38" y="726" width="120" height="60" as="geometry" />
        </mxCell>
        <mxCell id="SVBkzKlQY5_SW_EC5yE4-25" value="&lt;span style=&quot;font-size: 30px;&quot;&gt;の初回不採用率が平均を&lt;br&gt;&lt;/span&gt;" style="rounded=0;whiteSpace=wrap;html=1;align=left;dashed=1;dashPattern=8 8;verticalAlign=bottom;" parent="cFaB45KztUIKXS-_cTrr-14" vertex="1">
          <mxGeometry x="898" y="727" width="342" height="49" as="geometry" />
        </mxCell>
        <mxCell id="SVBkzKlQY5_SW_EC5yE4-26" value="&lt;span style=&quot;font-size: 30px;&quot;&gt;はるかに上回っています。&lt;/span&gt;" style="rounded=0;whiteSpace=wrap;html=1;align=left;fillColor=#CCCCCC;" parent="cFaB45KztUIKXS-_cTrr-14" vertex="1">
          <mxGeometry x="499.5" y="800" width="1030.5" height="50" as="geometry" />
        </mxCell>
        <mxCell id="SVBkzKlQY5_SW_EC5yE4-27" value="&lt;span style=&quot;font-size: 30px;&quot;&gt;合計金額移動は&lt;/span&gt;" style="rounded=0;whiteSpace=wrap;html=1;align=left;dashed=1;dashPattern=8 8;verticalAlign=bottom;" parent="cFaB45KztUIKXS-_cTrr-14" vertex="1">
          <mxGeometry x="183" y="870" width="302" height="46" as="geometry" />
        </mxCell>
        <mxCell id="SVBkzKlQY5_SW_EC5yE4-28" value="&lt;div style=&quot;&quot;&gt;&lt;span style=&quot;font-size: 30px;&quot;&gt;30,000&lt;/span&gt;&lt;/div&gt;" style="rounded=0;whiteSpace=wrap;html=1;align=right;fillColor=#CCCCCC;" parent="cFaB45KztUIKXS-_cTrr-14" vertex="1">
          <mxGeometry x="501" y="870" width="229" height="48" as="geometry" />
        </mxCell>
        <mxCell id="SVBkzKlQY5_SW_EC5yE4-29" value="&lt;span style=&quot;font-size: 30px;&quot;&gt;円です。&lt;br&gt;&lt;/span&gt;" style="rounded=0;whiteSpace=wrap;html=1;align=left;dashed=1;dashPattern=8 8;verticalAlign=bottom;" parent="cFaB45KztUIKXS-_cTrr-14" vertex="1">
          <mxGeometry x="755" y="868" width="130" height="46" as="geometry" />
        </mxCell>
        <mxCell id="SVBkzKlQY5_SW_EC5yE4-30" value="&lt;font style=&quot;font-size: 30px;&quot;&gt;計算式&lt;/font&gt;" style="rounded=1;whiteSpace=wrap;html=1;strokeWidth=4;" parent="cFaB45KztUIKXS-_cTrr-14" vertex="1">
          <mxGeometry x="38" y="869" width="120" height="60" as="geometry" />
        </mxCell>
        <mxCell id="SVBkzKlQY5_SW_EC5yE4-32" value="&lt;span style=&quot;font-size: 30px;&quot;&gt;ゾンビ政治資金団体です。&lt;/span&gt;" style="rounded=0;whiteSpace=wrap;html=1;align=left;fillColor=#CCCCCC;" parent="cFaB45KztUIKXS-_cTrr-14" vertex="1">
          <mxGeometry x="499.5" y="937" width="1030.5" height="50" as="geometry" />
        </mxCell>
        <mxCell id="SVBkzKlQY5_SW_EC5yE4-33" value="&lt;font style=&quot;font-size: 84px;&quot;&gt;○&lt;/font&gt;" style="text;html=1;strokeColor=none;fillColor=none;align=center;verticalAlign=middle;whiteSpace=wrap;rounded=0;fontSize=60;" parent="cFaB45KztUIKXS-_cTrr-14" vertex="1">
          <mxGeometry x="520" y="310" width="60" height="30" as="geometry" />
        </mxCell>
        <mxCell id="SVBkzKlQY5_SW_EC5yE4-34" value="&lt;font style=&quot;font-size: 48px;&quot;&gt;●&lt;/font&gt;" style="text;html=1;strokeColor=none;fillColor=none;align=center;verticalAlign=middle;whiteSpace=wrap;rounded=0;fontSize=48;" parent="cFaB45KztUIKXS-_cTrr-14" vertex="1">
          <mxGeometry x="520" y="312" width="60" height="30" as="geometry" />
        </mxCell>
        <mxCell id="SVBkzKlQY5_SW_EC5yE4-35" value="&lt;span style=&quot;font-size: 30px;&quot;&gt;××○○党33支部収支報告&lt;br&gt;&lt;/span&gt;" style="text;html=1;strokeColor=none;fillColor=none;align=left;verticalAlign=middle;whiteSpace=wrap;rounded=0;" parent="cFaB45KztUIKXS-_cTrr-14" vertex="1">
          <mxGeometry x="575" y="302" width="355" height="60" as="geometry" />
        </mxCell>
        <mxCell id="SVBkzKlQY5_SW_EC5yE4-36" value="&lt;span style=&quot;font-size: 30px;&quot;&gt;政治家個人を応援する会&lt;br&gt;&lt;/span&gt;" style="text;html=1;strokeColor=none;fillColor=none;align=left;verticalAlign=middle;whiteSpace=wrap;rounded=0;" parent="cFaB45KztUIKXS-_cTrr-14" vertex="1">
          <mxGeometry x="968" y="300" width="372" height="60" as="geometry" />
        </mxCell>
        <mxCell id="SVBkzKlQY5_SW_EC5yE4-37" value="&lt;font style=&quot;font-size: 84px;&quot;&gt;○&lt;/font&gt;" style="text;html=1;strokeColor=none;fillColor=none;align=center;verticalAlign=middle;whiteSpace=wrap;rounded=0;fontSize=60;" parent="cFaB45KztUIKXS-_cTrr-14" vertex="1">
          <mxGeometry x="911" y="311" width="60" height="30" as="geometry" />
        </mxCell>
        <mxCell id="uOTDyszs7KqVxaan8sgY-0" value="&lt;span style=&quot;font-size: 30px;&quot;&gt;IT対応率&lt;/span&gt;" style="rounded=0;whiteSpace=wrap;html=1;align=left;dashed=1;dashPattern=8 8;verticalAlign=bottom;" parent="cFaB45KztUIKXS-_cTrr-14" vertex="1">
          <mxGeometry x="183" y="1009" width="302" height="46" as="geometry" />
        </mxCell>
        <mxCell id="uOTDyszs7KqVxaan8sgY-1" value="&lt;div style=&quot;&quot;&gt;&lt;span style=&quot;font-size: 30px;&quot;&gt;12.9&lt;/span&gt;&lt;/div&gt;" style="rounded=0;whiteSpace=wrap;html=1;align=right;fillColor=#CCCCCC;" parent="cFaB45KztUIKXS-_cTrr-14" vertex="1">
          <mxGeometry x="501" y="1009" width="229" height="48" as="geometry" />
        </mxCell>
        <mxCell id="uOTDyszs7KqVxaan8sgY-2" value="&lt;span style=&quot;font-size: 30px;&quot;&gt;%です。&lt;br&gt;&lt;/span&gt;" style="rounded=0;whiteSpace=wrap;html=1;align=left;dashed=1;dashPattern=8 8;verticalAlign=bottom;" parent="cFaB45KztUIKXS-_cTrr-14" vertex="1">
          <mxGeometry x="755" y="1007" width="130" height="46" as="geometry" />
        </mxCell>
        <mxCell id="uOTDyszs7KqVxaan8sgY-3" value="&lt;font style=&quot;font-size: 30px;&quot;&gt;計算式&lt;/font&gt;" style="rounded=1;whiteSpace=wrap;html=1;strokeWidth=4;" parent="cFaB45KztUIKXS-_cTrr-14" vertex="1">
          <mxGeometry x="38" y="1008" width="120" height="60" as="geometry" />
        </mxCell>
        <mxCell id="uOTDyszs7KqVxaan8sgY-4" value="&lt;span style=&quot;font-size: 30px;&quot;&gt;自動入力が70%しかなく、漏れを事前に防ぐ指導が必要なレベル&lt;/span&gt;" style="rounded=0;whiteSpace=wrap;html=1;align=left;fillColor=#CCCCCC;" parent="cFaB45KztUIKXS-_cTrr-14" vertex="1">
          <mxGeometry x="499.5" y="1076" width="1030.5" height="50" as="geometry" />
        </mxCell>
        <mxCell id="S4mWK7qt4YU0azK-whtJ-0" value="" style="rounded=1;whiteSpace=wrap;html=1;strokeWidth=4;" parent="cFaB45KztUIKXS-_cTrr-14" vertex="1">
          <mxGeometry x="40" y="87" width="160" height="160" as="geometry" />
        </mxCell>
        <mxCell id="S4mWK7qt4YU0azK-whtJ-1" value="" style="shape=actor;whiteSpace=wrap;html=1;strokeWidth=4;" parent="cFaB45KztUIKXS-_cTrr-14" vertex="1">
          <mxGeometry x="60" y="107" width="120" height="120" as="geometry" />
        </mxCell>
        <mxCell id="S4mWK7qt4YU0azK-whtJ-2" value="&lt;span style=&quot;font-size: 30px;&quot;&gt;政治家個人&lt;/span&gt;" style="rounded=0;whiteSpace=wrap;html=1;align=left;fillColor=#CCCCCC;" parent="cFaB45KztUIKXS-_cTrr-14" vertex="1">
          <mxGeometry x="220" y="81" width="230" height="48" as="geometry" />
        </mxCell>
        <mxCell id="S4mWK7qt4YU0azK-whtJ-3" value="&lt;span style=&quot;font-size: 30px;&quot;&gt;さんは所属議会で&lt;/span&gt;" style="rounded=0;whiteSpace=wrap;html=1;align=left;dashed=1;dashPattern=8 8;verticalAlign=bottom;" parent="cFaB45KztUIKXS-_cTrr-14" vertex="1">
          <mxGeometry x="460" y="83" width="260" height="46" as="geometry" />
        </mxCell>
        <mxCell id="S4mWK7qt4YU0azK-whtJ-4" value="&lt;span style=&quot;font-size: 30px;&quot;&gt;××○○党&lt;/span&gt;" style="rounded=0;whiteSpace=wrap;html=1;align=left;fillColor=#CCCCCC;" parent="cFaB45KztUIKXS-_cTrr-14" vertex="1">
          <mxGeometry x="220" y="151" width="280" height="48" as="geometry" />
        </mxCell>
        <mxCell id="S4mWK7qt4YU0azK-whtJ-5" value="&lt;span style=&quot;font-size: 30px;&quot;&gt;◆◆議会会派&lt;/span&gt;" style="rounded=0;whiteSpace=wrap;html=1;align=left;fillColor=#CCCCCC;" parent="cFaB45KztUIKXS-_cTrr-14" vertex="1">
          <mxGeometry x="969" y="155" width="230" height="48" as="geometry" />
        </mxCell>
        <mxCell id="S4mWK7qt4YU0azK-whtJ-6" value="&lt;font style=&quot;font-size: 30px;&quot;&gt;△△県会議所属&lt;/font&gt;" style="rounded=0;whiteSpace=wrap;html=1;align=left;fillColor=#CCCCCC;" parent="cFaB45KztUIKXS-_cTrr-14" vertex="1">
          <mxGeometry x="528" y="156" width="230" height="48" as="geometry" />
        </mxCell>
        <mxCell id="S4mWK7qt4YU0azK-whtJ-7" value="&lt;div style=&quot;&quot;&gt;&lt;span style=&quot;font-size: 30px;&quot;&gt;☑議会役職&lt;/span&gt;&lt;/div&gt;" style="rounded=0;whiteSpace=wrap;html=1;align=left;fillColor=#CCCCCC;" parent="cFaB45KztUIKXS-_cTrr-14" vertex="1">
          <mxGeometry x="773" y="154" width="174" height="48" as="geometry" />
        </mxCell>
        <mxCell id="S4mWK7qt4YU0azK-whtJ-8" value="&lt;div style=&quot;&quot;&gt;&lt;span style=&quot;font-size: 30px;&quot;&gt;☑会派役職&lt;/span&gt;&lt;/div&gt;" style="rounded=0;whiteSpace=wrap;html=1;align=left;fillColor=#CCCCCC;" parent="cFaB45KztUIKXS-_cTrr-14" vertex="1">
          <mxGeometry x="1214" y="155" width="196" height="48" as="geometry" />
        </mxCell>
        <mxCell id="S4mWK7qt4YU0azK-whtJ-9" value="&lt;div style=&quot;&quot;&gt;&lt;span style=&quot;font-size: 30px;&quot;&gt;多数&lt;/span&gt;&lt;/div&gt;" style="rounded=0;whiteSpace=wrap;html=1;align=right;fillColor=#CCCCCC;" parent="cFaB45KztUIKXS-_cTrr-14" vertex="1">
          <mxGeometry x="736" y="80" width="71" height="48" as="geometry" />
        </mxCell>
        <mxCell id="S4mWK7qt4YU0azK-whtJ-10" value="&lt;span style=&quot;font-size: 30px;&quot;&gt;側所属です&lt;/span&gt;" style="rounded=0;whiteSpace=wrap;html=1;align=left;dashed=1;dashPattern=8 8;verticalAlign=bottom;" parent="cFaB45KztUIKXS-_cTrr-14" vertex="1">
          <mxGeometry x="830" y="83" width="260" height="46" as="geometry" />
        </mxCell>
        <mxCell id="S4mWK7qt4YU0azK-whtJ-11" value="&lt;span style=&quot;font-size: 30px;&quot;&gt;◆◆派閥&lt;/span&gt;" style="rounded=0;whiteSpace=wrap;html=1;align=left;fillColor=#CCCCCC;" parent="cFaB45KztUIKXS-_cTrr-14" vertex="1">
          <mxGeometry x="526" y="216" width="230" height="48" as="geometry" />
        </mxCell>
        <mxCell id="S4mWK7qt4YU0azK-whtJ-12" value="&lt;div style=&quot;&quot;&gt;&lt;span style=&quot;font-size: 30px;&quot;&gt;☑派閥役職&lt;/span&gt;&lt;/div&gt;" style="rounded=0;whiteSpace=wrap;html=1;align=left;fillColor=#CCCCCC;" parent="cFaB45KztUIKXS-_cTrr-14" vertex="1">
          <mxGeometry x="772" y="216" width="174" height="48" as="geometry" />
        </mxCell>
        <mxCell id="S4mWK7qt4YU0azK-whtJ-13" value="&lt;span style=&quot;font-size: 30px;&quot;&gt;◆◆委員会&lt;/span&gt;" style="rounded=0;whiteSpace=wrap;html=1;align=left;fillColor=#CCCCCC;" parent="cFaB45KztUIKXS-_cTrr-14" vertex="1">
          <mxGeometry x="969" y="215" width="230" height="48" as="geometry" />
        </mxCell>
        <mxCell id="S4mWK7qt4YU0azK-whtJ-14" value="&lt;div style=&quot;&quot;&gt;&lt;span style=&quot;font-size: 30px;&quot;&gt;☑委員会役職&lt;/span&gt;&lt;/div&gt;" style="rounded=0;whiteSpace=wrap;html=1;align=left;fillColor=#CCCCCC;" parent="cFaB45KztUIKXS-_cTrr-14" vertex="1">
          <mxGeometry x="1214" y="215" width="196" height="48" as="geometry" />
        </mxCell>
        <mxCell id="S4mWK7qt4YU0azK-whtJ-15" value="&lt;div style=&quot;&quot;&gt;&lt;span style=&quot;font-size: 30px;&quot;&gt;☑党役職&lt;/span&gt;&lt;/div&gt;" style="rounded=0;whiteSpace=wrap;html=1;align=left;fillColor=#CCCCCC;" parent="cFaB45KztUIKXS-_cTrr-14" vertex="1">
          <mxGeometry x="220" y="215" width="270" height="48" as="geometry" />
        </mxCell>
      </root>
    </mxGraphModel>
  </diagram>
</mxfile>
